<?xml version="1.0" encoding="UTF-8"?>
<svg id="_レイヤー_18" xmlns="http://www.w3.org/2000/svg" version="1.1" viewBox="0 0 963.39 255.87">
  <!-- Generator: Adobe Illustrator 30.7.0, SVG Export Plug-In . SVG Version: 2.1.4 Build 114)  -->
  <defs>
    <style>
      .st0 {
        fill: #fff;
      }
    </style>
  </defs>
  <rect class="st0" x=".13" y="195.87" width="107.01" height="14"/>
  <rect class="st0" x=".13" y="219.87" width="107.01" height="14"/>
  <path class="st0" d="M303.58,219.87h-104.85v14h106.2c-.12-4.76-.58-9.43-1.35-14Z"/>
  <path class="st0" d="M198.74,206.15v3.72h102.63c-1.33-4.82-3.02-9.5-5.02-14h-99.2c1.03,3.24,1.59,6.7,1.59,10.28Z"/>
  <path class="st0" d="M625.93,195.87h-288.2c2.13,4.88,4.63,9.56,7.49,14h273.23c2.85-4.44,5.35-9.12,7.49-14h0Z"/>
  <path class="st0" d="M958.82,185.87c2.97-9.46,4.57-19.52,4.57-29.95v-38.77h-106.63v53.43h-65.76c-14.27,0-25.83-11.57-25.83-25.83v-33.63c0-14.27,11.57-25.83,25.83-25.83h171.32C955.23,37.04,913.66,0,863.44,0h-104.95C703.29,0,658.54,44.75,658.54,99.95v55.97c0,10.43,1.6,20.49,4.57,29.95h295.71Z"/>
  <path class="st0" d="M681.68,219.87c4.27,5.13,9.05,9.82,14.26,14h230.06c5.21-4.18,9.98-8.87,14.26-14h-258.58Z"/>
  <path class="st0" d="M611.11,219.87h-258.56c4.28,5.13,9.06,9.82,14.27,14h230.03c5.2-4.18,9.98-8.87,14.26-14Z"/>
  <path class="st0" d="M381.84,243.87c14.13,7.65,30.31,12,47.51,12h104.95c17.2,0,33.39-4.35,47.52-12h-199.98Z"/>
  <path class="st0" d="M710.97,243.87c14.13,7.65,30.32,12,47.52,12h104.95c17.2,0,33.39-4.35,47.52-12h-199.99Z"/>
  <rect class="st0" x="198.74" y="243.87" width="106.24" height="12"/>
  <rect class="st0" x=".13" y="243.87" width="107.01" height="12"/>
  <path class="st0" d="M527.62,153.54v18.74h-196.88c.77,4.65,1.86,9.18,3.24,13.59h295.69c2.97-9.46,4.57-19.52,4.57-29.95v-53.59h-198.22v-18.74h196.88C625.09,36.17,583.92,0,534.29,0h-104.95C374.14,0,329.39,44.75,329.39,99.95v53.59h198.23Z"/>
  <path class="st0" d="M.13,153.71v32.16h107.01v-13.59h57.73c11.1,0,20.95,5.34,27.13,13.59h99.2c-7.56-12.83-17.9-23.83-30.2-32.16h44.11v-53.76c0-55.2-44.75-99.95-99.96-99.95h-105.2C44.75,0,0,44.75,0,99.95l.09,53.76h.04ZM107.14,83.59h57.73c18.71,0,33.87,15.16,33.87,33.87h-91.59v-33.87h0Z"/>
  <path class="st0" d="M666.85,195.87c2.13,4.88,4.63,9.56,7.49,14h273.25c2.85-4.44,5.35-9.12,7.49-14h-288.23Z"/>
</svg>