<?xml version="1.0" encoding="UTF-8"?>
<svg id="table1_x5F_playfield" xmlns="http://www.w3.org/2000/svg" version="1.1" viewBox="0 0 740 1280">
  <!-- Generator: Adobe Illustrator 30.8.0, SVG Export Plug-In . SVG Version: 2.1.4 Build 114)  -->
  <defs>
    <style>
      .st0 {
        display: none;
      }

      .st0, .st1 {
        fill: #333;
      }

      .st2 {
        stroke: #fff;
        stroke-width: 8px;
      }

      .st2, .st3, .st4 {
        fill: none;
        stroke-miterlimit: 10;
      }

      .st5 {
        fill: #545454;
      }

      .st6 {
        fill: #171717;
      }

      .st3 {
        stroke: #333;
        stroke-linecap: round;
        stroke-width: 2px;
      }

      .st7 {
        fill: #212121;
      }

      .st4 {
        stroke: #171717;
        stroke-width: 6px;
      }
    </style>
  </defs>
  <g id="outhole">
    <polygon class="st7" points="675 957.3 675 1095 370 1270 65 1095 65 957.3 0 957.3 0 1280 740 1280 740 957.3 675 957.3"/>
    <rect class="st6" y="960" width="740" height="17"/>
    <rect class="st6" y="982" width="740" height="15"/>
    <rect class="st6" y="1006" width="740" height="12"/>
    <rect class="st6" y="1031" width="740" height="8"/>
    <rect class="st6" y="1057" width="740" height="5"/>
    <rect class="st6" y="1085" width="740" height="3"/>
    <rect class="st6" y="1263" width="740" height="17"/>
    <rect class="st6" y="1243" width="740" height="15"/>
    <rect class="st6" y="1222" width="740" height="12"/>
    <rect class="st6" y="1201" width="740" height="8"/>
    <rect class="st6" y="1178" width="740" height="5"/>
    <rect class="st6" y="1152" width="740" height="3"/>
  </g>
  <path d="M529.6,1280l210.4-120.9v120.9H0v-120.9l210.4,120.9h319.2ZM.5,783.5l88-179C-139.5,113.5,101.5.3,492,.3l76.6,169.8s64.9-11.6,119.9,35.4c55.5,47.4,51.6,136,51.6,136l-64.6,275,64.5,171.5.2-787.7H0l.4,783.2h0Z"/>
  <g>
    <path class="st5" d="M631.8,663.1l16.5-6.3.6,1.6-16.5,6.3-.6-1.6ZM632.1,663.9l1.4-.5,1.8,4.8c.5,1.4,1.2,2.4,2.1,2.9.8.5,1.7.6,2.8.2h0c.7-.3,1.2-.7,1.6-1.2.3-.5.5-1.2.5-1.9s-.2-1.6-.5-2.5l-1.8-4.7,1.3-.5,1.6,4.3c.5,1.3,1.1,2.1,1.9,2.6.8.5,1.7.6,2.7.2h0c.9-.3,1.5-.9,1.7-1.7.3-.8.2-1.8-.3-2.9l-1.8-4.8,1.4-.5,1.9,5.1c.4,1,.5,1.9.5,2.7s-.3,1.6-.8,2.2c-.5.6-1.1,1.1-1.9,1.4h0c-.6.2-1.2.3-1.8.3s-1.2-.3-1.7-.6-1-.8-1.3-1.4h0c.2.8.2,1.6,0,2.3,0,.7-.4,1.4-.9,1.9-.5.6-1.1,1-1.8,1.3h0c-.9.4-1.8.5-2.7.3-.8-.2-1.6-.6-2.3-1.3s-1.3-1.7-1.7-2.9l-1.9-5.1h0Z"/>
    <path class="st5" d="M636.6,675.6h18.8l.4,1.1-1.9.7-.2-.4-16.6.2-.6-1.6h0ZM641.2,687.9l12.6-10.8,1.9-.7.3.8-14.1,12.4-.6-1.6h0q0,0,0-.1ZM642.6,676.4h1.5l2.9,7.5-1.1,1-3.2-8.5h-.1Z"/>
    <path class="st5" d="M642.5,691.3l16.5-6.3.6,1.6-15.1,5.7,3.1,8.2-1.4.5-3.7-9.8h0q0,0,0,0Z"/>
    <path class="st5" d="M647.1,703.3l16.5-6.3.6,1.6-15.1,5.7,3.1,8.2-1.4.5-3.7-9.8h0q0,0,0,0Z"/>
    <path class="st5" d="M655.2,725.5c-.4-1.2-.6-2.3-.6-3.3s.3-1.9.8-2.7,1.2-1.4,2.1-1.8h.2l.6,1.5h-.2c-.6.4-1.1.8-1.4,1.4-.3.6-.5,1.2-.5,2s.2,1.6.5,2.4c.3.9.7,1.6,1.2,2.1s1,.9,1.7,1.1c.6.2,1.2,0,1.9,0h0c.8-.3,1.3-.8,1.6-1.6.3-.7.3-1.8,0-3.2l-.3-2c-.2-1.7,0-3.1.3-4.1.4-1,1.2-1.8,2.4-2.2h0c.9-.3,1.7-.4,2.6-.2.9.2,1.6.7,2.3,1.4s1.3,1.6,1.7,2.7c.4,1.1.6,2.1.5,3.1,0,1-.3,1.8-.8,2.6s-1.2,1.3-2.1,1.7h-.2l-.6-1.5h0c.6-.4,1.1-.8,1.4-1.4.3-.5.5-1.2.5-1.8s0-1.4-.4-2.2c-.3-.8-.7-1.4-1.2-1.9s-1-.8-1.6-1-1.2,0-1.7,0h0c-.8.3-1.3.8-1.5,1.6-.3.7-.3,1.8,0,3.1l.3,2c.2,1.2.2,2.3,0,3.1s-.4,1.5-.9,2.1c-.5.5-1.1,1-1.9,1.3h0c-.9.4-1.9.4-2.7.2-.9-.2-1.7-.7-2.4-1.4s-1.3-1.7-1.8-2.9h0v-.2h.2Z"/>
    <path class="st5" d="M658.1,732.3h18.8l.4,1.1-1.9.7-.2-.4-16.6.2-.6-1.6h0ZM662.8,744.6l12.6-10.8,1.9-.7.3.8-14.1,12.4-.6-1.6h0q0,0,0-.1ZM664.2,733.1h1.5l2.9,7.5-1.1,1-3.2-8.5h-.1Z"/>
    <path class="st5" d="M665.2,751l14.1-12.4.6,1.6-12.6,10.8h0l16.6-.2.6,1.6h-18.8l-.6-1.4h.1Z"/>
    <path class="st5" d="M668.8,760.5l16.5-6.3,3.8,9.9-1.4.5-3.2-8.4-5.9,2.3,3,8-1.4.5-3-8-6.3,2.4,3.2,8.4-1.4.5-3.8-9.9h0q0,0,0,0Z"/>
  </g>
  <g>
    <path class="st5" d="M78.3,756.9l-15.7-7.9.7-1.5,15.7,7.9-.7,1.5ZM73.5,752.8l-2.1-1v-.2l-4.4-11.4.9-1.9,3.9,9.9h0l1.7,4.6h0ZM83,747.5l-10.9,2.2-.5-1.6,12.4-2.5-1,1.9h0Z"/>
    <path class="st5" d="M84.8,744l-15.7-7.9.7-1.5,15.7,7.9-.7,1.5Z"/>
    <path class="st5" d="M90.5,733.2c-.7,1.4-1.7,2.5-2.9,3.3-1.2.7-2.6,1.1-4.1,1.1s-3.1-.5-4.7-1.3h0c-1.7-.8-2.9-1.8-3.9-3-.9-1.2-1.4-2.5-1.6-3.9,0-1.4.2-2.8.9-4.3.5-1.1,1.2-2,2.1-2.6s1.8-1.1,2.8-1.3,2.1-.2,3.2,0h0l-.8,1.5h-.2c-.8-.2-1.6-.2-2.3,0-.7.2-1.4.5-2,1s-1.1,1.1-1.5,2c-.6,1.1-.8,2.3-.7,3.4,0,1.1.6,2.2,1.4,3.1.8,1,1.9,1.8,3.2,2.5h0c1.4.7,2.7,1.1,3.9,1.1s2.4-.2,3.3-.8,1.8-1.4,2.3-2.5c.4-.8.6-1.6.7-2.4,0-.8,0-1.5-.4-2.2s-.8-1.4-1.4-1.9h0l.8-1.6h0c.9.8,1.6,1.6,2,2.5.5.9.7,2,.6,3,0,1.1-.3,2.2-.9,3.3h.2Z"/>
    <path class="st5" d="M94.5,724.6l-15.7-7.9.7-1.5,15.7,7.9-.7,1.5ZM89.7,720.5l-2.1-1v-.2l-4.4-11.4.9-1.9,3.9,9.9h0l1.7,4.6h0ZM99.3,715.1l-10.9,2.2-.5-1.6,12.4-2.5-1,1.9h0Z"/>
    <path class="st5" d="M101,711.6l-15.7-7.9.7-1.5,15.7,7.9-.7,1.5ZM101.4,710.9l-1.3-.7,2.3-4.6c.7-1.4.9-2.5.8-3.5-.2-1-.8-1.7-1.7-2.2h0c-.7-.3-1.3-.5-1.9-.4s-1.2.4-1.8.9c-.6.5-1.1,1.2-1.5,2.1l-2.3,4.5-1.3-.6,2.1-4.1c.6-1.2.8-2.3.6-3.2-.2-.9-.7-1.6-1.7-2.1h0c-.9-.4-1.7-.5-2.4,0-.8.4-1.4,1.1-2,2.2l-2.3,4.5-1.3-.7,2.4-4.9c.5-.9,1-1.6,1.7-2.2.7-.5,1.4-.8,2.2-.9.8,0,1.5,0,2.3.5h0c.6.3,1.1.7,1.4,1.2.4.5.6,1.1.7,1.7v1.9h0c.5-.7,1-1.2,1.6-1.6s1.3-.6,2-.7c.7,0,1.4,0,2.2.5h0c.9.5,1.6,1.1,2,1.8s.6,1.6.6,2.6-.4,2.1-1,3.2l-2.4,4.8h0Z"/>
    <path class="st5" d="M107,699.7l-12.8-13.8.6-1.1,1.8.9-.2.4,11.4,12.1-.8,1.6h0ZM112.9,688l-16.5-1.9-1.8-.9.4-.7,18.7,2-.8,1.6h0q0,0,0,0ZM103.5,694.7l-1-1.1,3.6-7.2h1.5l-4.1,8.3Z"/>
    <path class="st5" d="M117.8,678.8c-.7,1.4-1.7,2.5-2.9,3.3-1.2.7-2.6,1.1-4.1,1.1s-3.1-.5-4.7-1.3h0c-1.7-.8-2.9-1.8-3.9-3s-1.4-2.5-1.6-3.9c0-1.4.2-2.8.9-4.3.5-1.1,1.2-2,2.1-2.6.9-.7,1.8-1.1,2.8-1.3s2.1-.2,3.2,0h0l-.8,1.5h-.2c-.8-.2-1.6-.2-2.3,0-.7.2-1.4.5-2,1s-1.1,1.1-1.5,2c-.6,1.1-.8,2.3-.7,3.4,0,1.1.6,2.2,1.4,3.1.8,1,1.9,1.8,3.2,2.5h0c1.4.7,2.7,1.1,3.9,1.1s2.4-.2,3.3-.8c1-.6,1.8-1.4,2.3-2.5.4-.8.6-1.6.7-2.4,0-.8,0-1.5-.4-2.2s-.8-1.4-1.4-1.9h0l.8-1.6h0c.9.8,1.6,1.6,2,2.5.5.9.7,2,.6,3,0,1.1-.3,2.2-.9,3.3h.2Z"/>
    <path class="st5" d="M121.8,670.2l-15.7-7.9.7-1.5,15.7,7.9-.7,1.5ZM117,666.2l-2.1-1v-.2l-4.4-11.4.9-1.9,3.9,9.9h0l1.7,4.6h0ZM126.5,660.8l-10.9,2.2-.5-1.6,12.4-2.5-1,1.9h0Z"/>
  </g>
  <path id="orbit_x5F_outer_x5F_deco_x5F_" class="st0" d="M157.5,50.2c-3.7,1.6-7.4,3.2-11,4.9l3.8,8.2,10.6-5.1-3.4-8h0ZM135.8,60.4c-3.6,1.8-7.1,3.7-10.6,5.6l4.7,8.4,10.1-5.8-4.2-8.3h0q0,0,0,.1ZM114.8,72c-3.4,2.1-6.8,4.2-10.1,6.4l5.7,8.5,9.6-6.5-5.2-8.5h0ZM94.9,85.4c-3.2,2.4-6.4,4.8-9.5,7.3l6.8,8.5,8.9-7.2-6.2-8.5h0s0,0,0-.1ZM76.2,100.4c-3,2.7-5.9,5.4-8.7,8.2l8.1,8.2,8.1-8-7.4-8.3h0s0,0,0,0ZM59.2,117.3c-2.7,3-5.3,6-7.8,9.1l9.4,7.6,7.2-8.8-8.7-7.9s0,0,0,0ZM44,135.9c-2.3,3.2-4.6,6.5-6.8,9.9l10.7,6.9,6.1-9.5-10-7.3h0ZM31.1,156.1c-2,3.5-3.8,7-5.6,10.6l11.9,5.9,5-10.1s-11.3-6.4-11.3-6.4ZM20.5,177.6c-1.6,3.7-3,7.4-4.4,11.2l13.1,4.8,3.9-10.6-12.5-5.4h-.1ZM12.2,200.2c-1.2,3.8-2.3,7.6-3.3,11.5l14.1,3.6,2.8-11-13.6-4.2h0q0,.1,0,0ZM6.2,223.4c-.8,3.9-1.5,7.8-2.2,11.8l15,2.4,1.8-11.2s-14.6-3-14.6-3ZM2.4,247.1c-.5,3.9-.9,7.9-1.2,11.9l15.7,1.3.8-11.4-15.4-1.8h.1ZM16.5,271.7l-16.1-.7c-.2,4-.3,8-.3,12l16.4.2v-11.5ZM16.9,294.6l-16.7.4c0,3.9.2,7.9.5,12l17-.9-.7-11.5s-.1,0,0,0ZM18.7,317.6l-17.3,1.4c.3,3.9.7,7.9,1.1,11.9l17.5-1.9-1.4-11.5h0s.1.1,0,.1ZM21.7,340.5l-17.8,2.3c.5,3.9,1.1,7.9,1.7,11.9l18-2.8-2-11.4s.1,0,0,0ZM25.9,363.3l-18.3,3.2c.7,3.9,1.4,7.8,2.2,11.8l18.5-3.7-2.5-11.4h.1ZM31,386l-18.7,4.1c.8,3.9,1.7,7.8,2.7,11.7l19-4.5-2.9-11.3h-.1ZM37,408.6l-19.2,4.9c1,3.8,2,7.7,3,11.6l19.4-5.2-3.3-11.2h0q0-.1,0,0ZM43.7,431l-19.6,5.6c1.1,3.8,2.2,7.6,3.4,11.5l19.8-6-3.6-11.1ZM51.1,453.2l-20,6.4c1.2,3.8,2.4,7.6,3.7,11.4l20.2-6.7-3.9-11.1h0ZM59,475.3l-20.4,7.1c1.3,3.7,2.6,7.5,4,11.3l20.6-7.4s-4.2-11-4.2-11ZM67.5,497.2l-20.8,7.7c1.4,3.7,2.8,7.5,4.2,11.2l21-8.1-4.4-10.9h0q0,.1,0,0ZM76.5,519l-21.2,8.4c1.4,3.7,2.9,7.4,4.4,11.2l21.5-8.7-4.7-10.8h0ZM86,540.6l-21.7,9c1.5,3.7,3.1,7.4,4.7,11.1l21.9-9.3-4.9-10.8ZM95.8,562l-22.1,9.6c1.6,3.6,3.2,7.3,4.8,11l22.3-9.9-5-10.7h0ZM106,583.4l-22.5,10.2c1.6,3.6,3.3,7.2,5,10.9l22.7-10.5-5.2-10.6h0ZM179.8,41.4l2.8,7.6-10.9,4.4-3.1-7.8,11.2-4.2ZM202.6,33.8l2.2,7.2-11.2,3.9-2.5-7.4,11.4-3.6h.1ZM225.7,27.3l1.7,6.7-11.4,3.4-1.9-6.9,11.6-3.1h0q0-.1,0-.1ZM249,21.7l1.3,6.1-11.5,2.9-1.5-6.4,11.7-2.7h0ZM272.6,17l1,5.6-11.6,2.5-1.2-5.8,11.8-2.3h0Z"/>
  <path id="orbit_x5F_inner_x5F_deco_x5F_outline" class="st0" d="M131.1,167.7h0l-7.6,9h0c0,.1,10.1,7.9,10.1,7.9,2.1-3,4.4-5.9,6.8-8.7l-9.1-8.3h-.2ZM148.6,151.2l-9,7.9,8.1,8.7c2.6-2.7,5.3-5.2,8.1-7.7l-7.2-8.9h0ZM168.1,137.3l-10,6.7,6.4,8.9c3-2.3,6.1-4.5,9.2-6.7l-5.6-8.9h0ZM189,125.5h0l-10.5,5.5h0l4.9,8.8c3.3-2,6.6-3.9,10-5.8l-4.3-8.7v.2h-.1,0ZM210.9,115.7h-.3l-10.7,4.6,3.8,8.4c3.5-1.7,7-3.4,10.6-5l-3.3-8.2h-.1v.2ZM233.4,107.4h0l-11.2,4,2.9,7.9,11-4.3-2.5-7.5h-.2ZM256.3,100.3c-.2,0-.4,0-.6.2l-10.4,3.1h-.5l2.2,7.2,11.2-3.8-1.9-6.8h0ZM279.5,94.3h0l-11,2.7h-.6l1.7,6.4,11.4-3.3-1.4-6h-.1v.2ZM116.4,186.6c-2.2,3.3-4.2,6.8-6.1,10.3l12,6.5c1.6-3.3,3.3-6.5,5.2-9.6l-11-7.2h0ZM105,207.7c-1.6,3.6-3,7.3-4.4,11.2l13.7,4.8c1.1-3.5,2.2-6.9,3.6-10.3,0,0-12.9-5.7-12.9-5.7ZM97.1,230.3c-1,3.8-1.9,7.7-2.7,11.7l15.1,3c.6-3.6,1.3-7.2,2.1-10.8l-14.4-3.9h0ZM92.4,253.8c-.5,3.9-1,7.9-1.3,11.9l16.2,1.3c.2-3.7.4-7.4.7-11.1l-15.7-2.1h0ZM107.2,278.2l-16.7-.5v12l17.1-.3c-.2-3.8-.3-7.5-.4-11.2ZM108.3,300.8l-17.5,1c.2,3.9.5,7.9.9,12l17.9-1.6c-.5-3.8-.9-7.5-1.3-11.3h0ZM111.3,323.4l-18.3,2.3c.5,3.9,1,7.9,1.7,11.9l18.7-2.8-2-11.3h0s0-.1,0-.1ZM115.6,346l-19,3.4c.7,3.9,1.4,7.8,2.2,11.8l19.4-3.9-2.6-11.3ZM121,368.5l-19.7,4.4c.9,3.8,1.8,7.7,2.8,11.7l20-4.9s-3.1-11.2-3.1-11.2ZM127.4,390.8l-20.4,5.4c1,3.8,2.1,7.7,3.2,11.6l20.7-5.8-3.5-11.1h0s0-.1,0-.1ZM134.6,413.1l-21,6.2c1.1,3.8,2.3,7.6,3.5,11.5l21.4-6.7-3.8-11.1h-.1q0,.1,0,.1ZM142.4,435.2l-21.7,7.1c1.2,3.8,2.5,7.5,3.8,11.4l22-7.4-4.1-11h0ZM150.7,457.2l-22.4,7.8c1.3,3.7,2.6,7.5,4,11.3l22.7-8.2-4.4-10.9h.1,0ZM159.5,479l-23,8.5c1.4,3.7,2.8,7.5,4.2,11.2l23.4-8.9-4.6-10.9h0q0,.1,0,0Z"/>
  <path id="loop_x5F_deco_x5F_outline" class="st1" d="M704.7,339.5l-29.1-7.4c1-3.8,1.8-7.4,2.5-10.8l29.4,5.9c-.8,3.9-1.7,8-2.8,12.3h0ZM213.4,338.8c-1.1-4.2-2-8.4-2.8-12.3l29.4-5.9c.7,3.4,1.5,7.1,2.4,10.8l-29.1,7.3h.1q0,.1,0,.1ZM709.6,314.6l-29.7-4c.5-3.6.8-7.2,1-10.5l30,1.5c-.2,4.2-.6,8.6-1.2,13.1h0ZM208.6,313.9c-.6-4.5-1-8.9-1.2-13.1l30-1.3c.1,3.3.5,6.8.9,10.5l-29.7,3.9ZM680.8,290c-.2-3.4-.6-6.6-1.3-9.7l29.4-6c.9,4.4,1.5,9,1.8,13.8l-29.9,1.9h0ZM237.5,289.4l-29.9-2.1c.3-4.8,1-9.4,1.9-13.8l29.3,6.3c-.6,3-1.1,6.3-1.3,9.6ZM677,271.3c-1.1-2.9-2.5-5.6-4-8.2l25.7-15.5c2.5,4.1,4.6,8.5,6.3,13l-28,10.8h0q0-.1,0,0ZM241.5,270.9l-27.9-11c1.8-4.5,4-8.8,6.5-12.9l25.5,15.8c-1.6,2.6-3,5.3-4.1,8.2h0ZM667.5,255.6c-2-2.3-4.3-4.6-6.8-6.7l19.5-22.8c3.6,3.1,7,6.4,10,9.9l-22.7,19.6ZM251.1,255.2l-22.5-19.9c3-3.4,6.4-6.7,10.1-9.8l19.3,23c-2.5,2.1-4.8,4.4-6.9,6.7ZM652.7,243c-2.7-1.8-5.7-3.6-8.9-5.2l13.9-26.6c4,2.1,7.9,4.4,11.5,6.7l-16.5,25h0ZM266,242.7l-16.4-25.1c3.6-2.3,7.4-4.6,11.5-6.7l13.8,26.6c-3.2,1.6-6.2,3.4-8.9,5.2ZM634.3,233.2c-3.2-1.4-6.6-2.7-10.1-3.9l9.9-28.3c4.1,1.5,8.2,3,11.9,4.6l-11.8,27.6h0,0ZM284.6,233l-11.6-27.6c3.8-1.6,7.8-3.1,11.9-4.6l9.8,28.3c-3.5,1.2-6.9,2.5-10.1,3.9h0ZM613.6,225.9c-3.4-1-7.1-2-10.8-2.9l7.2-29.1c4.1,1,8.2,2.1,12.1,3.2l-8.4,28.8h0ZM305.2,225.8l-8.3-28.8c3.9-1.1,7.9-2.2,12.1-3.2l7.1,29.2c-3.7.9-7.4,1.9-10.8,2.9h-.1q0-.1,0,0ZM591.9,220.6c-3.6-.7-7.4-1.5-11.2-2.1l5.1-29.6c4.1.7,8.2,1.5,12.1,2.3l-6.1,29.4h.1ZM327.1,220.4l-6-29.4c3.9-.8,8-1.6,12.1-2.3l5.1,29.6c-3.8.7-7.6,1.4-11.2,2.1h0ZM569.4,216.7c-3.7-.5-7.5-1-11.4-1.5l3.6-29.8c4.1.5,8.2,1,12.1,1.6l-4.3,29.7h0ZM349.5,216.6l-4.3-29.7c3.9-.6,8-1.1,12.1-1.6l3.6,29.8c-3.9.5-7.7,1-11.4,1.5h0ZM546.6,213.9c-3.7-.4-7.6-.7-11.5-1.1l2.5-29.9c4.1.3,8.1.7,12.1,1.1l-3,29.8h0q0,.1,0,0ZM372.3,213.8l-3-29.9c3.9-.4,8-.8,12.1-1.1l2.4,29.9c-3.9.3-7.8.7-11.5,1h0ZM523.5,211.9c-3.8-.3-7.7-.5-11.6-.7l1.5-30c4.1.2,8.1.4,12,.7l-2,29.9h0ZM395.4,211.9l-2-29.9c3.9-.3,8-.5,12-.7l1.5,30c-3.9.2-7.8.4-11.6.7h.1ZM500.3,210.7c-3.8-.1-7.7-.3-11.6-.4l.8-30c4.1.1,8.1.2,12,.4l-1.1,30h-.1,0ZM418.6,210.7l-1.1-30c3.9-.1,8-.3,12-.4l.8,30c-3.9,0-7.8.2-11.6.4h-.1,0ZM477,210.1c-3.8,0-7.7,0-11.7-.1v-30c4.2,0,8.2,0,12.1.1l-.4,30ZM441.9,210.1l-.4-30c3.9,0,7.9,0,12-.1v30c-3.8,0-7.7,0-11.6.1Z"/>
  <path id="orbit_x5F_inner_x5F_deco_x5F_stroke" class="st1" d="M281.4,28.1C40.7,72.3-70.3,217.6,100.5,589.9l16-20.4C25.5,366.5-50.5,112.5,281.4,28.1Z"/>
  <path id="orbit_x5F_inner_x5F_deco_x5F_stroke_x5F_outline" class="st1" d="M296,108.2C109.9,150,63.3,242.2,153.6,483.9l15.9-20.4c-81-229-40-294,126.5-355.3h0Z"/>
  <g>
    <polygon class="st1" points="436 60 419.7 25 467 25 483 60 436 60"/>
    <line class="st4" x1="446.8" y1="67" x2="424.8" y2="20"/>
    <line class="st4" x1="462.3" y1="67" x2="440.3" y2="20"/>
  </g>
  <g>
    <polygon class="st1" points="461 113 444.7 78 492 78 508 113 461 113"/>
    <line class="st4" x1="471.8" y1="120" x2="449.8" y2="73"/>
    <line class="st4" x1="487.3" y1="120" x2="465.3" y2="73"/>
  </g>
  <g>
    <polygon class="st1" points="485 166 468.7 131 516 131 532 166 485 166"/>
    <line class="st4" x1="495.8" y1="173" x2="473.8" y2="126"/>
    <line class="st4" x1="511.3" y1="173" x2="489.3" y2="126"/>
  </g>
  <g>
    <path class="st1" d="M278.5,1063c-2,0-2.8,2.7-1,3.7l90,51.8c1.5.9,3.4.9,5,0l90-51.8c1.8-1,1.1-3.7-1-3.7h-183Z"/>
    <rect class="st6" x="271" y="1063" width="198" height="38"/>
    <path class="st6" d="M286,1067h168.1l-83.5,48c-.2,0-.4.2-.6.2s-.3,0-.4,0l-83.6-48.1M278.5,1065l90,51.8c.4.3.9.4,1.4.4s1.1,0,1.5-.4l90-51.8h-183,.1Z"/>
    <path class="st1" d="M461.5,1065l-90,51.8c-.5.3-1,.4-1.6.4s-1,0-1.5-.4l-90-51.8h183M461.5,1063h-183c-2,0-2.8,2.7-1,3.7l90,51.8c.8.4,1.6.7,2.5.7s1.7-.2,2.5-.7l90-51.8c1.8-1,1.1-3.7-1-3.7h0Z"/>
    <line class="st3" x1="419.5" y1="1090" x2="320.5" y2="1090"/>
    <line class="st3" x1="444" y1="1076" x2="296" y2="1076"/>
  </g>
  <rect class="st2" width="740" height="1280"/>
</svg>